<svg width="162" height="37" viewBox="0 0 162 37" fill="none" xmlns="http://www.w3.org/2000/svg">
<path d="M28.6526 11.3942H19.552V8.30044C23.3084 7.29563 21.9822 1.72552 18.18 2.53911C15.1964 3.24055 15.2028 7.60177 18.18 8.30044V11.3942H9.07932C7.0351 11.3952 5.37686 13.06 5.37503 15.1147V24.9951C5.37503 25.3757 5.68235 25.6846 6.06101 25.6846C6.43967 25.6846 6.74699 25.3757 6.74699 24.9951V15.1147C6.74882 13.8212 7.79243 12.7732 9.07932 12.7732H28.6526C29.9395 12.7732 30.9831 13.8212 30.985 15.1147V30.8211C30.9831 32.1146 29.9395 33.1626 28.6526 33.1626H9.07932C7.77962 33.1516 6.7351 32.0833 6.74608 30.777C6.77077 30.3909 6.44516 30.0636 6.06101 30.0875C5.67321 30.1087 5.37137 30.4332 5.37503 30.823C5.37778 32.8776 7.0351 34.5407 9.07932 34.5416H28.6526C30.6959 34.5397 32.3523 32.8749 32.3542 30.8211V15.1147C32.3523 13.0609 30.6968 11.3961 28.6526 11.3942ZM17.2919 5.42759L17.2891 5.43127C17.3193 3.34995 20.3989 3.34351 20.4392 5.42392C20.4071 7.50708 17.3275 7.50983 17.2919 5.42759Z" fill="#0DCABF" stroke="#0DCABF" stroke-width="0.7"/>
<path d="M13.0586 28.7479C13.0586 29.1285 13.3659 29.4374 13.7446 29.4374H23.9885C24.3672 29.4374 24.6745 29.1285 24.6745 28.7479C24.6745 28.3673 24.3672 28.0584 23.9885 28.0584H13.7446C13.365 28.0584 13.0586 28.3673 13.0586 28.7479Z" fill="#0DCABF" stroke="#0DCABF" stroke-width="0.7"/>
<path d="M12.857 17.0437C9.19473 17.1356 9.19291 22.532 12.8551 22.6258C16.5183 22.5329 16.5164 17.1411 12.857 17.0437ZM12.857 21.244V21.2468C11.0103 21.2165 11.0085 18.4548 12.8551 18.4227C14.7018 18.4539 14.7018 21.2091 12.857 21.244Z" fill="#0DCABF" stroke="#0DCABF" stroke-width="0.7"/>
<path d="M24.8755 17.0416C21.2123 17.1353 21.2142 22.5317 24.8764 22.6236C28.5368 22.5262 28.5377 17.1344 24.8755 17.0416ZM23.4715 19.8326C23.5026 17.9765 26.2502 17.9765 26.2813 19.8326C26.2502 21.6887 23.5053 21.6878 23.4715 19.8326Z" fill="#0DCABF" stroke="#0DCABF" stroke-width="0.7"/>
<path d="M48.1961 32.2936C47.3994 32.2936 47.001 31.8952 47.001 31.0985V14.1957C47.001 13.3989 47.3994 13.0005 48.1961 13.0005H55.6231C57.1313 13.0005 58.2885 13.3989 59.0947 14.1957C59.9105 14.9924 60.3184 16.1307 60.3184 17.6104V18.3787C60.3184 19.6592 59.9152 20.6504 59.109 21.3523C60.6171 22.1965 61.3712 23.7379 61.3712 25.9764V26.9439C61.3712 28.6892 60.9064 30.0172 59.9769 30.9277C59.0568 31.8383 57.7289 32.2936 55.9931 32.2936H48.1961ZM49.3913 29.9033H55.9931C57.0649 29.9033 57.8285 29.6757 58.2838 29.2204C58.7485 28.7556 58.9809 27.9968 58.9809 26.9439V25.9764C58.9809 24.9235 58.758 24.1742 58.3122 23.7284C57.8664 23.2731 57.0933 23.0455 55.9931 23.0455H49.3913V29.9033ZM49.3913 20.6552C49.3913 20.6552 50.6898 20.6552 51.5219 20.6552C52.354 20.6552 53.6525 20.6552 53.6525 20.6552H56.1353C56.8278 20.6552 57.2973 20.4417 57.5439 20.0149C57.8 19.5881 57.9281 19.0427 57.9281 18.3787V17.6104C57.9281 16.7852 57.7573 16.2113 57.4158 15.8888C57.0744 15.5568 56.4768 15.3908 55.6231 15.3908H49.3913V20.6552Z" fill="#0DCABF"/>
<path d="M75.8795 32.2936C75.4716 32.2936 75.1681 32.1988 74.9689 32.0091C74.7792 31.8099 74.6844 31.5064 74.6844 31.0985V14.2241C74.6844 13.8068 74.7792 13.5032 74.9689 13.3135C75.1681 13.1238 75.4716 13.029 75.8795 13.029C76.2969 13.029 76.6004 13.1238 76.7901 13.3135C76.9798 13.5032 77.0747 13.8068 77.0747 14.2241V31.0985C77.0747 31.5064 76.9798 31.8099 76.7901 32.0091C76.6004 32.1988 76.2969 32.2936 75.8795 32.2936Z" fill="#0DCABF"/>
<path d="M92.7252 32.2936C91.9284 32.2936 91.5301 31.8952 91.5301 31.0985V14.1957C91.5301 13.3989 91.9284 13.0005 92.7252 13.0005H100.152C101.66 13.0005 102.818 13.3989 103.624 14.1957C104.44 14.9924 104.847 16.1307 104.847 17.6104V18.3787C104.847 19.6592 104.444 20.6504 103.638 21.3523C105.146 22.1965 105.9 23.7379 105.9 25.9764V26.9439C105.9 28.6892 105.436 30.0172 104.506 30.9277C103.586 31.8383 102.258 32.2936 100.522 32.2936H92.7252ZM93.9203 29.9033H100.522C101.594 29.9033 102.358 29.6757 102.813 29.2204C103.278 28.7556 103.51 27.9968 103.51 26.9439V25.9764C103.51 24.9235 103.287 24.1742 102.841 23.7284C102.395 23.2731 101.622 23.0455 100.522 23.0455H93.9203V29.9033ZM93.9203 20.6552H100.664C101.357 20.6552 101.826 20.4417 102.073 20.0149C102.329 19.5881 102.457 19.0427 102.457 18.3787V17.6104C102.457 16.7852 102.286 16.2113 101.945 15.8888C101.603 15.5568 101.006 15.3908 100.152 15.3908H93.9203V20.6552Z" fill="#0DCABF"/>
<path d="M124.905 32.2936C122.732 32.2936 121.125 31.7767 120.081 30.7428C119.047 29.6994 118.53 28.0916 118.53 25.9195V19.3462C118.53 17.1551 119.052 15.5473 120.096 14.5229C121.139 13.489 122.742 12.9815 124.905 13.0005H128.319C130.501 13.0005 132.109 13.5175 133.143 14.5514C134.177 15.5853 134.693 17.193 134.693 19.3746V25.9195C134.693 28.0916 134.177 29.6994 133.143 30.7428C132.109 31.7767 130.501 32.2936 128.319 32.2936H124.905ZM124.905 29.9033H128.319C129.334 29.9033 130.131 29.7848 130.71 29.5476C131.288 29.301 131.696 28.8884 131.933 28.3098C132.18 27.7312 132.303 26.9344 132.303 25.9195V19.3746C132.303 18.3692 132.18 17.5772 131.933 16.9986C131.696 16.42 131.288 16.0074 130.71 15.7607C130.131 15.5141 129.334 15.3908 128.319 15.3908H124.905C123.899 15.3813 123.107 15.4951 122.529 15.7323C121.95 15.9694 121.537 16.3773 121.291 16.9559C121.044 17.5345 120.921 18.3313 120.921 19.3462V25.9195C120.921 26.9344 121.039 27.7312 121.277 28.3098C121.523 28.8884 121.936 29.301 122.514 29.5476C123.093 29.7848 123.89 29.9033 124.905 29.9033Z" fill="#0DCABF"/>
<path d="M153.09 32.2936C152.692 32.2936 152.393 32.194 152.194 31.9948C151.995 31.7957 151.895 31.4969 151.895 31.0985V15.4193H146.375C145.976 15.4193 145.677 15.3197 145.478 15.1205C145.279 14.9213 145.179 14.6225 145.179 14.2241C145.179 13.8257 145.279 13.5269 145.478 13.3278C145.677 13.1286 145.976 13.029 146.375 13.029H159.806C160.204 13.029 160.503 13.1286 160.702 13.3278C160.901 13.5269 161.001 13.8257 161.001 14.2241C161.001 14.6225 160.901 14.9213 160.702 15.1205C160.503 15.3197 160.204 15.4193 159.806 15.4193H154.285V31.0985C154.285 31.4779 154.181 31.7719 153.972 31.9806C153.773 32.1893 153.479 32.2936 153.09 32.2936Z" fill="#0DCABF"/>
<path d="M52.7811 21.8925C52.7811 22.9975 51.8853 23.8933 50.7803 23.8933C49.6753 23.8933 48.7795 22.9975 48.7795 21.8925C48.7795 20.7875 49.6753 19.8917 50.7803 19.8917C51.8853 19.8917 52.7811 20.7875 52.7811 21.8925Z" fill="#0DCABF"/>
<path d="M97.4658 21.8925C97.4658 22.9975 96.57 23.8933 95.465 23.8933C94.36 23.8933 93.4642 22.9975 93.4642 21.8925C93.4642 20.7875 94.36 19.8917 95.465 19.8917C96.57 19.8917 97.4658 20.7875 97.4658 21.8925Z" fill="#0DCABF"/>
</svg>
